<svg width="37" height="37" viewBox="0 0 24 37" fill="none" xmlns="http://www.w3.org/2000/svg">
  <path d="M7.89475 36.7465C12.2549 36.7465 15.7895 33.2119 15.7895 28.8518C15.7895 24.4916 12.2549 20.957 7.89475 20.957C3.5346 20.957 0 24.4916 0 28.8518C0 33.2119 3.5346 36.7465 7.89475 36.7465Z" fill="#C26BFF" />
  <path d="M14.3634 24.3244H1.39453L7.8701 14.3359L14.3634 24.3244Z" fill="#9600FF" />
  <path d="M15.7771 -0.000432014C11.417 -0.000432014 7.88241 3.53416 7.88241 7.89431C7.88241 12.2545 11.417 15.7891 15.7771 15.7891C20.1373 15.7891 23.6719 12.2545 23.6719 7.89431C23.6719 3.53416 20.1373 -0.000432014 15.7771 -0.000432014Z" fill="url(#paint0_linear_6025_20)" />
  <path d="M9.30469 13.4219H22.2729L15.798 23.4104L9.30469 13.4219Z" fill="#9600FF" />
  <defs>
    <linearGradient id="paint0_linear_6025_20" x1="15.7771" y1="18.47" x2="15.7771" y2="-6.50197" gradientUnits="userSpaceOnUse">
      <stop stop-color="#9600FF" />
      <stop offset="1" stop-color="#9600FF" stop-opacity="0" />
    </linearGradient>
  </defs>
</svg>